<?xml version="1.0" encoding="utf-8"?>
<!-- Generator: Adobe Illustrator 19.0.0, SVG Export Plug-In . SVG Version: 6.00 Build 0)  -->
<svg version="1.1" id="Camada_1" xmlns="http://www.w3.org/2000/svg" xmlns:xlink="http://www.w3.org/1999/xlink" x="0px" y="0px"
	 viewBox="129 -75.4 758.6 650.4" style="enable-background:new 129 -75.4 758.6 650.4;" xml:space="preserve">
<style type="text/css">
	.st0{fill:#58595B;}
	.st1{fill:#939598;}
	.st2{fill:#FFFFFF;}
	.st3{fill:#5C8195;}
	.st4{fill:#D40006;}
	.st5{fill:#1C75BC;}
	.st6{fill:#00A79D;}
	.st7{fill:#2BB673;}
	.st8{fill:#F0B784;}
	.st9{fill:#FF3F61;}
	.st10{fill:#FFC28E;}
	.st11{fill:#2B2B2B;}
	.st12{fill:#21414F;}
	.st13{fill:#25485B;}
	.st14{fill:#E2A77D;}
	.st15{fill:#2C546F;}
	.st16{fill:#CAD9E0;}
	.st17{fill:#17294B;}
	.st18{fill:#E4F4FF;}
</style>
<title>ill-4</title>
<g id="_x34__3_">
	<g id="_x31_">
		<g>
			<rect x="582.9" y="-60.8" class="st0" width="23.5" height="471.8"/>
			<g>
				<polygon class="st0" points="501.6,121.3 438.4,484.9 461.7,487 524.9,123.4 				"/>
				<polygon class="st0" points="658.7,124.2 733.3,486.6 756.5,484.1 681.9,121.6 				"/>
			</g>
			<rect x="433.2" y="-40" class="st1" width="306.9" height="279.6"/>
			<rect x="458.2" y="-29.6" class="st2" width="256.9" height="246.4"/>
			<rect x="425.2" y="226" class="st0" width="323.7" height="16.4"/>
			<rect x="572.5" y="-41.6" class="st0" width="44.9" height="16.7"/>
		</g>
		<g>
			<g>
				<g>
					<g>
						<rect x="683.9" y="9.6" class="st3" width="1.3" height="18.6"/>
					</g>
					<g>
						<rect x="683.9" y="39.5" class="st3" width="1.3" height="18.6"/>
					</g>
					<g>
						<rect x="683.9" y="69.3" class="st3" width="1.3" height="18.6"/>
					</g>
					<g>
						<rect x="683.9" y="99.1" class="st3" width="1.3" height="18.6"/>
					</g>
					<g>
						<rect x="683.9" y="128.9" class="st3" width="1.3" height="18.6"/>
					</g>
					<g>
						<rect x="683.9" y="158.8" class="st3" width="1.3" height="18.6"/>
					</g>
					<g>
						<rect x="683.9" y="188.6" class="st3" width="1.3" height="18.6"/>
					</g>
				</g>
				<g>
					<g>
						<rect x="614" y="9.6" class="st3" width="1.3" height="18.6"/>
					</g>
					<g>
						<rect x="614" y="39.5" class="st3" width="1.3" height="18.6"/>
					</g>
					<g>
						<rect x="614" y="69.3" class="st3" width="1.3" height="18.6"/>
					</g>
					<g>
						<rect x="614" y="99.1" class="st3" width="1.3" height="18.6"/>
					</g>
					<g>
						<rect x="614" y="128.9" class="st3" width="1.3" height="18.6"/>
					</g>
					<g>
						<rect x="614" y="158.8" class="st3" width="1.3" height="18.6"/>
					</g>
					<g>
						<rect x="614" y="188.6" class="st3" width="1.3" height="18.6"/>
					</g>
				</g>
				<g>
					<g>
						<rect x="550.4" y="9.6" class="st3" width="1.3" height="18.6"/>
					</g>
					<g>
						<rect x="550.4" y="39.5" class="st3" width="1.3" height="18.6"/>
					</g>
					<g>
						<rect x="550.4" y="69.3" class="st3" width="1.3" height="18.6"/>
					</g>
					<g>
						<rect x="550.4" y="99.1" class="st3" width="1.3" height="18.6"/>
					</g>
					<g>
						<rect x="550.4" y="128.9" class="st3" width="1.3" height="18.6"/>
					</g>
					<g>
						<rect x="550.4" y="158.8" class="st3" width="1.3" height="18.6"/>
					</g>
					<g>
						<rect x="550.4" y="188.6" class="st3" width="1.3" height="18.6"/>
					</g>
				</g>
				<g>
					<g>
						<rect x="515" y="9.6" class="st3" width="1.3" height="18.6"/>
					</g>
					<g>
						<rect x="515" y="39.5" class="st3" width="1.3" height="18.6"/>
					</g>
					<g>
						<rect x="515" y="69.3" class="st3" width="1.3" height="18.6"/>
					</g>
					<g>
						<rect x="515" y="99.1" class="st3" width="1.3" height="18.6"/>
					</g>
					<g>
						<rect x="515" y="128.9" class="st3" width="1.3" height="18.6"/>
					</g>
					<g>
						<rect x="515" y="158.8" class="st3" width="1.3" height="18.6"/>
					</g>
					<g>
						<rect x="515" y="188.6" class="st3" width="1.3" height="18.6"/>
					</g>
				</g>
			</g>
			<g>
				<polygon class="st4" points="678.3,130.7 637.7,180.8 592.9,115 553,180.6 531.6,141.8 487.6,198.4 488.6,202.1 531.4,146.9 
					552.9,185.9 593,120.1 637.6,185.7 678.3,135.5 				"/>
			</g>
			<g>
				<polygon class="st5" points="678.3,146.1 636,154.3 592.9,9.1 552.7,141.3 530.7,102.7 487.5,185.4 488.7,188.7 530.7,108.1 
					553.1,147.4 592.9,16.7 635.1,158.7 678.3,150.4 				"/>
			</g>
			<g>
				<polygon class="st6" points="678.3,114.9 636.8,9.6 592.3,142.8 554,204.6 530.9,126.7 487.6,198.6 488.7,202 530.5,132.8 
					553.5,210.6 593.5,146.1 593.6,145.9 636.9,16.3 678.3,121.3 				"/>
			</g>
			<g>
				<polygon class="st7" points="678.3,111 636.9,77.5 592.9,115.3 531.4,88.6 487.7,135.5 488.5,139.4 531.6,93 593,119.8 
					636.9,82 678.3,115.5 				"/>
			</g>
		</g>
	</g>
	<g id="_x31_6">
		<path class="st8" d="M573.7,133.5c-1.7-3.4-6-5.8-10.1-5.1c-1.9,0.3-3.6,1.2-5.3,2c-9.2,5-17.4,11.2-26.8,15.8
			c-1.7,0.8-3.7,1.9-3.8,3.7c0,0.8,0.4,1.6,0.8,2.4c1.5,2.7,1.5,2.7,3.1,5.5c12.7-0.8,23.7-4.1,29-6c3.9-1.4,9.6-4.5,11.8-7.6
			C574.7,141,575.4,136.9,573.7,133.5z"/>
		<path class="st9" d="M675.3,15L544.3,154.6l5.1,3.5L676.2,15.6C675.8,15.4,675.6,15.2,675.3,15z"/>
		<path class="st10" d="M576.4,124.1c-5,0-10.1,0.1-15.1,0.1c-2.9,0-5.8,0.1-8.6,0.9c-5.6,1.7-9.4,6.2-13,10.3
			c-3.6,4.2-7.9,8.5-13.8,9.3c-1.2-0.1-1.5,1.7-1.1,2.8c0.4,1,1.4,1.8,1.9,2.7c0.2,0.4,0.3,0.9,0.7,1.2c0.6,0.5,1.5,0.4,2.3,0.2
			c4.5-1.1,8-4.2,12.2-5.9c3.5-1.4,7.4-2,10.5-4c0,0,0,0,0,0c0.1-0.1,0.2-0.1,0.3-0.2l-0.1,0.1c4.5-2.4,8.1-6,10.3-10.2
			c3.2,0.2,6.4-0.3,9.4-1.4c1.4-0.5,2.7-1.2,3.6-2.3C576.8,126.7,577.1,125.2,576.4,124.1z"/>
		<path class="st10" d="M561.2,136.5c-0.7,0.7-1.1,1.4-1.2,2.3c-0.1,0.8,0.8,1.8,1.7,1.5c-1,0.3-2,0.8-2.5,1.6
			c-0.4,0.8,0.2,2.1,1.2,2c-1.4-0.1-2.9,0.7-3.1,1.9c-0.3,1.2,1,2.5,2.4,2.4c-1,0.1-1.6,1.2-1.3,2c0.3,0.8,1.3,1.4,2.2,1.6
			c1,0.2,2,0,3-0.1c3.8-0.5,7.8-1.1,10.7-3.3c0.4-0.3,0.8-0.7,1-1.1c0.1-0.5-0.1-1-0.7-1.2c1.3-0.6,2.8-1.3,3.5-2.5
			c0.7-1.2,0.3-3-1.1-3.4c1.1-0.8,2.2-1.7,2.4-2.9c0.2-1.2-1-2.6-2.4-2.3c1.5-1.4,1.6-3.6,0.6-5.2c-1.6-2.5-2.4-1.3-4.1,0
			C569.9,132.7,564.4,133.2,561.2,136.5z"/>
		<path class="st10" d="M303,267c-0.8-4.1-2.2-6.9-4.2-7c-3.4-0.1-6.8-0.1-10.2,0.5c-2.1,0.4-8,1.4-8.6,3.7
			c-1.9,6.7-5.2,13-6.4,19.9c-1.5,8.2,2,15.4,4.7,23.2c0.3,0.8,0.6,1.7,1.3,2.3c0.6,0.7,1.7,1.1,2.7,0.8c1.3-0.4,1.6-1.9,1.7-3.2
			c2.6,2.3,8.1,10.4,8.8,2.5c0.4-4.1-2.9-9.2-3.9-13.2c-1.3-4.8,0.9-9.9,5.6-12.7c1.3,2.5,2,4.3,1.8,7.1c-0.1,1.8-0.5,3.7,0.1,5.4
			c0.5,1.8,2.3,3.4,4.4,3.3C303.9,299.5,305.4,278.4,303,267z"/>
		<g>
			<g>
				<g>
					<path class="st11" d="M443.8,512.1l3.4,13l11.4,17.6c1.3,2.4,0.9,5.2-1.1,7.2l-4.6,4.6c-1.4,1.4-3.4,2.2-5.5,2.2H429
						c-1.7,0-3.4-0.5-4.7-1.5l-10.8-7.8c-1.9-1.3-2.9-3.4-2.7-5.5c0.7-7.9,2-28-0.3-41C407.6,484.5,443.8,512.1,443.8,512.1z"/>
					<path class="st11" d="M333.6,512.1l-3.4,13l-11.4,17.6c-1.3,2.4-0.9,5.2,1.1,7.2l4.6,4.6c1.4,1.4,3.4,2.2,5.5,2.2h18.5
						c1.7,0,3.4-0.5,4.7-1.5l10.8-7.8c1.9-1.3,2.9-3.4,2.7-5.5c-0.7-7.9-2-28,0.3-41C369.8,484.5,333.6,512.1,333.6,512.1z"/>
					<path class="st12" d="M335.8,227.7c-1.5-0.2-3.1-0.4-4.6-0.6c-1.5-0.2-2.9,0.8-3.1,2.1c-1.5,12.5-2.8,25.4-3.8,38.8
						c-2.3,31.3-1.2,243.5-1.2,243.5s-0.1,6.9,30.3,6.4c4.3-0.1,9.3-0.3,14.9-0.8c1.5-0.1,2.6-1.2,2.6-2.6
						c0.4-58.1,9-157.6,14.5-215.1c0.1-1.2,1-1.9,2-2.1v-62.9C370.2,232.1,353,229.9,335.8,227.7z"/>
					<path class="st13" d="M452,268c-1-13.4-2.3-26.4-3.8-38.8c-0.2-1.3-1.6-2.3-3.1-2.1c-1.5,0.2-3.1,0.4-4.6,0.6
						c-17.3,2.2-34.6,4.5-52,6.7c-0.3,0-0.5,0-0.8,0c-0.1,0-0.2,0-0.3,0v62.9c1.5-0.3,3.2,0.4,3.4,2.1c5.5,57.4,10.7,157,11,215.1
						c0,1.4,1.2,2.5,2.6,2.6c5.7,0.4,10.6,0.7,14.9,0.8c30.4,0.6,30.3-6.4,30.3-6.4S454.3,299.3,452,268z"/>
					<g>
						<g>
							<polygon class="st14" points="415.4,37.8 415.5,39.5 416.4,54.2 394.1,73 386.3,66.3 373.6,55.6 372.6,37.5 							"/>
							<path class="st10" d="M390.6-17.8c2.5,0.6,6-2.4,7.6-3.6c3-2.2,6.3-4,9.9-5.2c2.6-0.9,5.5-1.5,8.2-0.8c4,1,6.6,4.7,7.3,8.5
								c1.5,7.7-2.6,15.6-1.3,23.2c0.2,1.1,0.5,3.5,2.4,2.3c0.8-0.5,0.3-1.8,1.1-2.4c1.8-1.3,2.7,0.8,2.8,2c0.5,4.4,0.1,9.3-2,13.4
								c-1.2,2.4-3,3.1-4.7,4.9c-1.9,2-1.4,5.6-2,7.9c-0.4,1.6-1.1,3.1-2.1,4.4c-2.1,2.8-5.9,4.2-8.4,6.8c-2.3,2.4-4.4,4.8-7.6,6.4
								c-1.9,1-4.7,1.1-7.3,1.1c-0.3,0-0.7,0.1-1,0.1l-4-69.3C389.9-17.9,390.2-17.9,390.6-17.8z"/>
							<path class="st8" d="M355.5,9.6c0-1.2,0.7-3.4,2.6-2.3c0.9,0.5,0.5,1.9,1.3,2.3c2,1,2-1.4,2.1-2.5c0.2-4.1-2.1-8-1.8-12
								c0.3-3.7-0.1-7.5,1.1-11.2c1.1-3.2,3.2-6.1,6.3-7.7c2.8-1.6,6.4-2,9.6-1.2c2.8,0.7,4.8,2.3,6.6,4.3c2.1,2.1,3,2.1,6.2,2.8
								l4,69.3c-2.3,0.2-4.6,0.1-6.4-0.5c-3.4-1.3-5.8-3.5-8.3-5.7c-2.7-2.3-6.7-3.4-9.1-6c-1.1-1.2-2-2.6-2.6-4.2
								c-0.9-2.3-0.8-6-2.9-7.7c-1.9-1.6-3.8-2.2-5.2-4.4C356.5,18.8,355.5,14,355.5,9.6z"/>
							<path class="st0" d="M426.4,1.1c-0.6,2.5-1,5-0.9,7.5l-3.4,0.2C422,8.1,422,7.6,422,7.2c0-1.7-0.1-3-0.3-4.7
								c-0.9-7.4,1.9-31.6-14.3-24c-2.4,1.1-4.5,2.7-6.8,3.9c-6.7,3.5-15.4,3.5-22.2,0.2c-3.8-1.9-9.9-6.2-13.9-2.3
								c-2.6,2.6-1.6,9.5-1.8,12.6c-0.3,4.4-0.8,8.5-0.4,13c0.2,1.8,0.7,3.6,0.7,5.4c-5.2,1.8-4.1-3.6-5.1-6.4
								c-1.7-4.7-2.1-9-2.4-13.7c-0.3-4.7-2.1-9.8-0.5-14.5c3.1-9.1,16.3-14.2,25.5-16c9.9-2,20.8-1.5,30.5,1.3c4,1.2,10.2,3,13,6.1
								c2.9,3.1,3.2,8.9,4,12.9C429.1-12.4,427.8-5.5,426.4,1.1z"/>
						</g>
						<g>
							<path class="st13" d="M388.8,124.8c0,0,0,0.1-0.6,1.5c-0.2,0.5-0.4,0.9-0.4,0.9l0-0.4l-10.8-40.7l-7.4-27.9
								c0,0-0.3,0.1-0.8,0.3c-1.4,0.5-5.9,5-10.6,6.8c0-0.4,0-0.9-0.1-1.3c-0.5,0.1-1,0.2-1.6,0.3c-21.2,3.8-38.8,5.1-48.9,24
								c-7.3,13.7-9,29.1-12.1,43.8c-4.3,19.8-7.1,39.7-10.2,59.6c-2.9,18.3-7.4,59.4-12,77.3c6.4,1.4,31.3,1.9,35.6,2.4
								c0-4.7,11.6-70.9,12.8-75.4c1.3-4.8,6.6-45.8,10.5-51.6c-1.8,2.6,0.8,6.3,1.1,8.9c0.7,5.4-0.9,11-1.7,16.3
								c-1.7,11.5-1.7,23.4-2.6,34.9c-1.9,24.4-3.7,48.7-6.3,73c-0.2,2.1-0.4,4.3-0.7,6.4c0.4-3,58.2,4.9,62.1,4.7
								c0.7-24.8,3.7-82.5,4.4-105C388.4,183.9,390.1,124.8,388.8,124.8z"/>
							<path class="st15" d="M538.6,133.1c0,0.3-44.9,18.9-49.8,18.7c-1.9,0-9.6-42.1-10.5-45.7c-1.9-7.8-3.3-17.9-7.9-24.9
								c-7-10.7-23-12.3-35.3-15.5c-3.1-0.8-6.6-3.3-9.6-3.6c-6-0.8-9.6,7.2-11.4,11.1c-3.2,6.7-6.1,13.5-9.2,20.2
								c-2.4,5.2-7.6,9-9.4,14.6c-3.1,9.5-7.7,19.1-9,29c-0.9,6.5,0.8,12.6,1.2,19.1c0.3,4-2.4,77.9-2.1,91.8
								c0.2,7.2,1.5,33.9,1.7,41l68.9-4.7c-0.9-21.3-6-58.9-7-80.2c-0.8-18.5-4.2-37.9-2.1-56.2c3.7,7.2,7.4,14.4,11.1,21.6
								c1.8,3.4,9.1,11.4,12.1,14.2c5.5,5.2,17.1,3.8,24.5,2.5c22-4,31.6-12.5,49.5-24.5C542.6,146.5,540.8,145.2,538.6,133.1z"/>
							<path class="st16" d="M378,104.8c2.8,4.9,4.6,9.8,6.4,15c0.9,2.7,1.8,6.8,5.2,7.1c4.3,0.4,8.1-6.4,10-9.1
								c2.9-4.1,5.4-8.2,8.3-12.2c0.3-4.1,0.1-9,1.7-12.9c1.3-3.1,4.1-4.7,3.8-8.5c-0.2-2.3-1.7-4.7-4.1-5.7c-1.6-0.7-3.5-0.8-5-1.9
								c-1.4-1-2.4-2.7-3.6-3.9c-1.5-1.5-4.3-5-7-5c-4.7-0.8-11.2,8.3-14.5,11.1c-5.3,4.5-7.8,9.3-9.6,14.9
								C372.8,97.1,375.5,100.6,378,104.8z"/>
							<path class="st17" d="M379,110.6l9-29c0.3-0.9,0.2-1.9-0.2-2.7l-2.2-4.4c-0.1-0.3,0-0.6,0.2-0.8c1.1-1,2.2-2,3.3-3.1
								c0.7-0.7,1.6-1.4,2.1-2.2c0.3-0.6,1.2-2.1,2.1-1.5c0.7,0.5,0.9,1.2,1.4,1.9c0.4,0.6,1.2,1.2,1.8,1.7c0.8,0.8,1.6,1.6,2.4,2.3
								c0.2,0.2,0.2,0.5,0.1,0.8l-3,4.8c-0.5,0.9-0.8,1.9-0.6,2.8l4,27.7c0,0.1,0,0.3-0.1,0.4l-10.9,22c-0.2,0.4-0.7,0.5-1,0.5
								c-0.4,0.2-0.8,0.1-0.9-0.3L379,111C379,110.9,379,110.7,379,110.6z"/>
							<path class="st18" d="M372.6,48.9L392.5,66c0.3,0.3,0.8,0.2,1.1-0.1l22.5-19.7l9.2,14.7l-17.8,26.8l-14-20.3
								c-0.3-0.4-1-0.4-1.4,0.1l-18,23l-7.2-27.8L372.6,48.9z"/>
							<path class="st13" d="M437.2,74.2c-0.5-2,0-6.8-3-9.8c-5.2-5.1-10.2-7.4-11.9-8.2l-12.4,29.1l-3.8,8.2l-17.9,36.3l-0.6,29.2
								c0,0,9.3-23.7,17.2-37.6c9.5-16.7,20.9-29,29.7-37c-3.7-2.2-7.3-4.3-11-6.5L437.2,74.2z"/>
							<path class="st15" d="M352.4,73.8c0.8-1.9,0.9-6.7,4.4-9.4c5.8-4.5,10.7-6.8,12.5-7.4l8.7,30.7l2.6,8.5l9.1,30.7l-1.7,33.5
								c0,0-4.2-21.8-10.1-36.4c-7.1-17.6-16.7-31-24.3-40c3.9-1.7,7.9-3.5,11.8-5.3L352.4,73.8z"/>
						</g>
					</g>
				</g>
			</g>
			<polygon class="st12" points="328.1,219 357,213.8 357,224.1 325.7,237 			"/>
			<polygon class="st13" points="450.9,219 422,213.8 422,224.1 453.2,237 			"/>
		</g>
	</g>
</g>
</svg>
