<svg width="136" height="181" viewBox="0 0 136 181" fill="none" xmlns="http://www.w3.org/2000/svg">
<g clip-path="url(#clip0)">
<path d="M130.835 117.794H103.865C101.57 117.794 99.2742 120.092 99.2742 122.39V146.524C99.2742 148.822 96.9789 151.121 94.6835 151.121H52.2194C48.2025 151.121 46.481 146.524 48.7764 143.651L133.705 36.2C134.278 35.6254 134.852 34.4762 134.852 33.327V4.59683C134.852 2.29841 132.557 0 130.262 0H4.59072C2.29536 0 0 2.29841 0 4.59683V56.3111C0 58.6095 2.29536 60.9079 4.59072 60.9079H31.5612C33.8565 60.9079 36.1519 58.6095 36.1519 56.3111V34.4762C36.1519 32.1778 38.4473 29.8794 40.7426 29.8794H82.0591C86.0759 29.8794 87.7975 34.4762 85.5021 37.3492L1.14768 144.225C0.57384 144.8 0 145.949 0 147.098V176.403C0 178.702 2.29536 181 4.59072 181H130.835C133.131 181 135.426 178.702 135.426 176.403V122.39C136 119.517 133.705 117.794 130.835 117.794ZM82.6329 49.4159L68.8608 79.8698L91.8143 82.1683L60.827 121.241L76.3207 89.6381L53.3671 86.1905L82.6329 49.4159Z" fill="url(#paint0_linear)"/>
</g>
<defs>
<linearGradient id="paint0_linear" x1="0" y1="90.3851" x2="135.723" y2="90.3851" gradientUnits="userSpaceOnUse">
<stop stop-color="#6603CF"/>
<stop offset="1" stop-color="#553889"/>
</linearGradient>
<clipPath id="clip0">
<rect width="136" height="181" fill="white"/>
</clipPath>
</defs>
</svg>
