<svg width="136" height="181" viewBox="0 0 136 181" fill="none" xmlns="http://www.w3.org/2000/svg">
<g clip-path="url(#clip0)">
<path d="M131.2 117.4H104.3C101.8 117.4 99.7 119.5 99.7 122V146C99.7 148.5 97.6 150.6 95.1 150.6H52.4C48.6 150.6 46.4 146.2 48.8 143.2L133.4 36.1C134 35.3 134.4 34.3 134.4 33.3V4.6C134.4 2.1 132.3 0 129.8 0H4.7C2.2 0 0.1 2.1 0.1 4.6V56.1C0.1 58.6 2.2 60.7 4.7 60.7H31.6C34.1 60.7 36.2 58.6 36.2 56.1V34.6C36.2 32.1 38.3 30 40.8 30H82.3C86.1 30 88.3 34.4 85.9 37.5L1 144.1C0.4 144.9 0 145.9 0 147V176C0 178.5 2.1 180.6 4.6 180.6H131.1C133.6 180.6 135.7 178.5 135.7 176V122.1C135.8 119.4 133.7 117.4 131.2 117.4ZM82.7 49.1L68.9 79.6L92.1 81.8L60.9 121.1L76.2 89.6L53.3 86.2L82.7 49.1Z" fill="url(#paint0_linear)"/>
</g>
<defs>
<linearGradient id="paint0_linear" x1="0" y1="90.3" x2="135.703" y2="90.3" gradientUnits="userSpaceOnUse">
<stop stop-color="#6633FF"/>
<stop offset="1" stop-color="#6600CC"/>
</linearGradient>
<clipPath id="clip0">
<rect width="135.7" height="180.6" fill="white"/>
</clipPath>
</defs>
</svg>
