<?xml version="1.0" encoding="utf-8"?>
<!-- Generator: Adobe Illustrator 24.2.3, SVG Export Plug-In . SVG Version: 6.00 Build 0)  -->
<svg version="1.1" id="Camada_1" xmlns="http://www.w3.org/2000/svg" xmlns:xlink="http://www.w3.org/1999/xlink" x="0px" y="0px"
	 viewBox="0 0 30.9 32" style="enable-background:new 0 0 30.9 32;" xml:space="preserve">
<style type="text/css">
	.st0{fill:#EDA900;}
	.st1{fill:#989898;}
</style>
<path id="XMLID_1345_" class="st0" d="M28.8,16.3c0.5-0.6,0.9-1.3,1.2-2c0.3-0.7,0.4-1.5,0.4-2.4s-0.2-1.8-0.5-2.6s-0.8-1.5-1.4-2.1
	s-1.3-1.1-2.1-1.4c-0.8-0.3-1.6-0.5-2.6-0.5H8.6v4.4H13h4.4h6.5c0.6,0,1.1,0.2,1.6,0.6c0.4,0.4,0.6,0.9,0.6,1.6
	c0,0.6-0.2,1.1-0.6,1.5S24.6,14,23.9,14h-6.5H13v4.4h4.4h6.5c0.6,0,1.1,0.2,1.6,0.6c0.4,0.4,0.6,0.9,0.6,1.6c0,0.6-0.2,1.1-0.6,1.5
	s-0.9,0.6-1.6,0.6h-6.5H13H8.6v4.4h15.3c0.9,0,1.8-0.2,2.6-0.5c0.8-0.3,1.5-0.8,2.1-1.4s1.1-1.3,1.4-2.1c0.3-0.8,0.5-1.6,0.5-2.6
	c0-0.8-0.1-1.6-0.4-2.4C29.7,17.5,29.3,16.9,28.8,16.3z"/>
<path id="XMLID_1344_" class="st1" d="M16,20.9c-0.6,0.6-1.3,1.1-2.1,1.4s-1.6,0.5-2.6,0.5H9.2V9.7h2.2c0.9,0,1.8,0.2,2.6,0.5
	s1.5,0.8,2.1,1.4c0.6,0.6,1,1.3,1.4,2H22c-0.1-0.6-0.3-1.1-0.6-1.7c-0.6-1.3-1.4-2.5-2.3-3.5c-1-1-2.1-1.8-3.5-2.3
	c-1.3-0.6-2.7-0.9-4.3-0.9H0.4v4.4h4.4v13.1H0.4v4.4h10.9c1.5,0,2.9-0.3,4.3-0.9c1.3-0.6,2.5-1.4,3.5-2.3c1-1,1.8-2.1,2.3-3.5
	c0.2-0.5,0.4-1.1,0.6-1.7h-4.6C17,19.6,16.6,20.3,16,20.9z"/>
</svg>
