<svg width="32" height="32" viewBox="0 0 32 32" fill="none" xmlns="http://www.w3.org/2000/svg">
<path d="M15.9 31.8C24.6813 31.8 31.8 24.6813 31.8 15.9C31.8 7.11867 24.6813 0 15.9 0C7.11867 0 0 7.11867 0 15.9C0 24.6813 7.11867 31.8 15.9 31.8Z" fill="#F0EFEF"/>
<path d="M19.9 16.2C21.6 16.2 23 16.8 24.2 18C25.4 19.2 26 20.6 26 22.3V24.2C26 24.8 25.8 25.3 25.4 25.7C25 26.1 24.5 26.3 23.9 26.3H7.9C7.3 26.3 6.8 26.1 6.4 25.7C6 25.3 5.8 24.8 5.8 24.2V22.3C5.8 20.6 6.4 19.2 7.6 18C8.8 16.8 10.2 16.2 11.9 16.2H12.7C13.8 16.7 14.9 16.9 16 16.9C17.1 16.9 18.2 16.7 19.3 16.2H19.9ZM20 13C18.9 14.1 17.5 14.7 15.9 14.7C14.3 14.7 12.9 14.1 11.8 13C10.7 11.9 10.1 10.5 10.1 8.9C10.1 7.3 10.7 5.9 11.8 4.8C12.9 3.7 14.3 3.1 15.9 3.1C17.5 3.1 18.9 3.7 20 4.8C21.1 5.9 21.7 7.3 21.7 8.9C21.7 10.5 21.1 11.9 20 13Z" fill="#D6D6D6"/>
</svg>
